<?xml version="1.0" encoding="utf-8"?>
<!-- Generator: Adobe Illustrator 16.0.0, SVG Export Plug-In . SVG Version: 6.00 Build 0)  -->
<!DOCTYPE svg PUBLIC "-//W3C//DTD SVG 1.1//EN" "http://www.w3.org/Graphics/SVG/1.1/DTD/svg11.dtd">
<svg version="1.1" id="Layer_1" xmlns="http://www.w3.org/2000/svg" xmlns:xlink="http://www.w3.org/1999/xlink" x="0px" y="0px"
	 width="440.364px" height="81.536px" viewBox="319.04 91.788 440.364 81.536"
	 enable-background="new 319.04 91.788 440.364 81.536" xml:space="preserve">
<g enable-background="new    ">
	<path fill="#3C93E2" d="M322.1,133.096l4.32-24.209h-7.379l1.439-8.279h25.199l-1.44,8.279h-7.38l-4.68,26.1
		c-1.44,8.009,2.7,12.239,10.08,12.239c6.84,0,12.87-3.69,14.31-12.06l4.68-26.279h-7.649l1.439-8.279h24.93l-1.44,8.279h-7.38
		l-4.68,26.459c-2.43,13.77-11.43,21.149-24.209,21.149C328.669,156.495,319.4,148.216,322.1,133.096z"/>
	<path fill="#3C93E2" d="M388.159,150.646l-4.049,22.679h-10.17l8.639-48.778h-5.939l1.44-8.01h15.119l-0.81,4.681
		c3.24-3.42,7.469-5.67,12.6-5.67c8.279,0,14.85,6.029,14.85,17.729c0,13.949-9.271,23.129-20.16,23.129
		C394.279,156.405,390.499,154.155,388.159,150.646z M409.398,133.456c0-6.479-2.88-10.26-8.009-10.26
		c-6.931,0-11.79,6.93-11.79,15.3c0,6.479,2.88,10.259,8.009,10.259C404.539,148.755,409.398,141.825,409.398,133.456z"/>
	<path fill="#3C93E2" d="M437.569,150.646l-4.05,22.679h-10.17l8.64-48.778h-5.939l1.439-8.01h15.119l-0.81,4.681
		c3.24-3.42,7.47-5.67,12.6-5.67c8.28,0,14.85,6.029,14.85,17.729c0,13.949-9.271,23.129-20.159,23.129
		C443.688,156.405,439.909,154.155,437.569,150.646z M458.808,133.456c0-6.479-2.879-10.26-8.009-10.26
		c-6.93,0-11.79,6.93-11.79,15.3c0,6.479,2.881,10.259,8.01,10.259C453.948,148.755,458.808,141.825,458.808,133.456z"/>
	<path fill="#3C93E2" d="M472.399,153.615l1.26-7.47c3.6,1.53,8.189,2.79,12.42,2.79c5.49,0,7.199-2.07,7.199-4.05
		c0-6.39-17.459-4.05-17.459-16.649c0-6.84,5.22-12.689,16.289-12.689c4.68,0,9,1.08,12.24,2.25l-1.26,7.199
		c-2.791-1.08-6.66-2.16-10.53-2.16c-5.22,0-6.659,1.98-6.659,3.78c0,6.21,17.459,3.96,17.459,16.829c0,4.95-2.61,12.96-17.1,12.96
		C480.949,156.405,476.269,155.325,472.399,153.615z"/>
	<path fill="#3C93E2" d="M518.389,99.797h-5.58l1.44-8.009h15.749l-5.04,28.349c3.51-2.61,7.561-4.59,12.24-4.59
		c6.119,0,11.43,3.33,11.43,10.26c0,7.199-5.851,11.789-13.23,13.679l3.33,5.85c0.721,1.261,1.801,3.24,4.23,3.24
		c1.709,0,4.049-0.899,5.76-1.8l-1.44,7.83c-1.979,1.079-4.14,1.8-6.659,1.8c-4.86,0-8.01-2.61-10.439-7.11l-5.58-10.439l0.72-3.689
		c6.84-0.45,13.409-3.24,13.409-8.189c0-2.521-1.71-3.601-4.32-3.601c-3.779,0-7.648,2.25-10.799,4.68l-4.859,27.359h-10.17
		L518.389,99.797z"/>
	<path fill="#3C93E2" d="M554.208,138.676c0-13.949,9.27-23.129,20.16-23.129c5.398,0,9.179,2.34,11.52,5.85l0.899-4.86h10.169
		l-5.039,28.079c-0.54,3.061,0.539,4.14,3.06,4.14c1.26,0,2.7-0.27,3.96-0.72l-1.26,7.47c-1.71,0.45-4.051,0.9-6.391,0.9
		c-5.939,0-8.369-2.7-8.999-6.39c-3.33,3.869-7.829,6.39-13.229,6.39C560.778,156.405,554.208,150.375,554.208,138.676z
		 M584.447,133.456c0-6.479-2.88-10.26-8.01-10.26c-6.93,0-11.79,6.93-11.79,15.3c0,6.479,2.881,10.259,8.01,10.259
		C579.587,148.755,584.447,141.825,584.447,133.456z"/>
	<path fill="#3C93E2" d="M635.026,144.075l3.42-19.529h-18.089l-3.601,20.43c-0.449,2.79,1.351,3.6,4.051,3.6
		c3.149,0,5.85-1.17,7.649-1.8l-1.351,7.47c-2.52,1.17-6.029,2.16-9.898,2.16c-9.27,0-11.7-5.67-10.53-12.33l3.42-19.529h-6.659
		l1.439-8.01h6.66l1.709-9.899h10.26l-1.8,9.899h18.18l1.71-9.899h10.26l-1.801,9.899h10.35l-1.439,8.01h-10.26l-3.6,20.43
		c-0.45,2.79,1.35,3.6,4.05,3.6c3.149,0,5.85-1.17,7.649-1.8l-1.35,7.47c-2.52,1.17-6.029,2.16-9.9,2.16
		C636.286,156.405,633.856,150.735,635.026,144.075z"/>
</g>
<g enable-background="new    ">
	<path fill="#CCCCCC" d="M664.276,150.105c0-3.42,2.789-6.21,6.209-6.21s6.21,2.79,6.21,6.21s-2.79,6.21-6.21,6.21
		S664.276,153.525,664.276,150.105z"/>
</g>
<g enable-background="new    ">
	<path fill="#3C93E2" d="M681.556,138.676c0-13.949,9.27-23.129,20.16-23.129c5.398,0,9.179,2.34,11.52,5.85l0.899-4.86h10.169
		l-5.039,28.079c-0.54,3.061,0.539,4.14,3.06,4.14c1.26,0,2.7-0.27,3.96-0.72l-1.26,7.47c-1.71,0.45-4.051,0.9-6.391,0.9
		c-5.939,0-8.369-2.7-8.999-6.39c-3.33,3.869-7.829,6.39-13.229,6.39C688.126,156.405,681.556,150.375,681.556,138.676z
		 M711.795,133.456c0-6.479-2.88-10.26-8.01-10.26c-6.93,0-11.79,6.93-11.79,15.3c0,6.479,2.881,10.259,8.01,10.259
		C706.935,148.755,711.795,141.825,711.795,133.456z"/>
	<path fill="#3C93E2" d="M734.025,144.075l3.42-19.529h-6.659l1.439-8.01h6.66l1.709-9.899h10.26l-1.8,9.899h10.35l-1.44,8.01
		h-10.259l-3.601,20.43c-0.449,2.79,1.351,3.6,4.051,3.6c3.149,0,5.85-1.17,7.649-1.8l-1.351,7.47c-2.52,1.17-6.029,2.16-9.898,2.16
		C735.286,156.405,732.855,150.735,734.025,144.075z"/>
</g>
</svg>
