<?xml version="1.0" encoding="utf-8"?>
<!-- Generator: Adobe Illustrator 16.0.0, SVG Export Plug-In . SVG Version: 6.00 Build 0)  -->
<!DOCTYPE svg PUBLIC "-//W3C//DTD SVG 1.1//EN" "http://www.w3.org/Graphics/SVG/1.1/DTD/svg11.dtd">
<svg version="1.1" id="Layer_1" xmlns="http://www.w3.org/2000/svg" xmlns:xlink="http://www.w3.org/1999/xlink" x="0px" y="0px"
	 width="756.795px" height="258px" viewBox="0 0 756.795 258" enable-background="new 0 0 756.795 258" xml:space="preserve">
<g>
	<circle fill="#1B5DAF" cx="129" cy="129" r="128.707"/>
	<path fill="#1B5DAF" d="M129,258c-34.457,0-66.852-13.418-91.217-37.783C13.418,195.852,0,163.457,0,129
		s13.418-66.852,37.783-91.217C62.148,13.418,94.543,0,129,0s66.852,13.418,91.217,37.783C244.582,62.148,258,94.543,258,129
		s-13.418,66.852-37.783,91.217C195.852,244.582,163.457,258,129,258z M129,0.586c-34.301,0-66.548,13.357-90.802,37.611
		C13.944,62.451,0.586,94.699,0.586,129s13.357,66.548,37.611,90.802c24.254,24.255,56.502,37.612,90.803,37.612
		s66.548-13.357,90.802-37.612c24.255-24.254,37.612-56.501,37.612-90.802s-13.357-66.548-37.612-90.802
		C195.548,13.943,163.301,0.586,129,0.586z"/>
</g>
<g>
	<path fill="#FFFFFF" d="M222,71H35v145.564c24,25.176,56.643,40.922,93.793,40.922c36.841,0,70.207-15.482,93.207-40.291V71z"/>
	<path fill="#FFFFFF" d="M129,257.779c-35.569,0-68.865-14.564-94.122-41.012L35,216.684V70h188v147.312l-0.171,0.084
		c-11.931,12.619-26.052,22.551-41.884,29.517C164.559,254.124,147.051,257.779,129,257.779z M35,216.448
		c25,26.274,58.541,40.745,93.909,40.745c17.969,0,35.281-3.639,51.595-10.817C196.226,239.458,210,229.602,222,217.079V71H35
		V216.448z"/>
</g>
<g>
	<rect x="46" y="84" fill="#E6E6E6" width="166" height="7"/>
</g>
<g>
	<rect x="46" y="119" fill="#E6E6E6" width="166" height="8"/>
</g>
<g>
	<rect x="46" y="132" fill="#E6E6E6" width="166" height="7"/>
</g>
<g>
	<rect x="46" y="144" fill="#E6E6E6" width="166" height="8"/>
</g>
<g>
	<rect x="46" y="156" fill="#E6E6E6" width="166" height="8"/>
</g>
<g>
	<rect x="46" y="169" fill="#E6E6E6" width="166" height="7"/>
</g>
<g>
	<rect x="128" y="195" fill="#E6E6E6" width="84" height="6"/>
</g>
<rect x="151" y="205" fill="#E6E6E6" width="61" height="6"/>
<rect x="170" y="215" fill="#E6E6E6" width="42" height="6"/>
<g>
	<path fill="#333333" d="M127.241,212.361c-34.326,0-62.251-27.928-62.251-62.252c0-34.326,27.926-62.252,62.251-62.252
		c34.325,0,62.252,27.926,62.252,62.252S161.566,212.361,127.241,212.361z M127.241,96.653c-29.476,0-53.456,23.98-53.456,53.457
		s23.98,53.457,53.456,53.457c29.476,0,53.457-23.98,53.457-53.457C180.697,120.633,156.717,96.653,127.241,96.653z"/>
</g>
<g>
	<circle fill="#333333" cx="127.241" cy="150.109" r="6.157"/>
</g>
<g>
	<rect x="127" y="108.283" fill="#333333" width="0" height="42.316"/>
	<path fill="#333333" d="M127.5,154.117c-1.943,0-3.5-1.575-3.5-3.518v-42.316c0-1.943,1.557-3.518,3.5-3.518s3.5,1.575,3.5,3.518
		V150.6C131,152.542,129.443,154.117,127.5,154.117z"/>
</g>
<g>
	<rect x="138.609" y="145.658" fill="#333333" width="0" height="31.35"/>
	<path fill="#333333" d="M149.693,175.936c-0.9,0-1.801-0.345-2.487-1.031l-22.168-22.166c-0.687-0.688-1.03-1.588-1.03-2.488
		s0.344-1.801,1.03-2.486c1.374-1.375,3.602-1.375,4.975-0.002l22.168,22.168c0.688,0.688,1.031,1.588,1.031,2.487
		s-0.344,1.801-1.03,2.487C151.494,175.591,150.594,175.936,149.693,175.936z"/>
</g>
<text transform="matrix(1 0 0 1 314 155.415)" fill="#FFFFFF" font-family="'KlinicSlab-BoldItalic'" font-size="90">Uppskatt</text>
<text transform="matrix(1 0 0 1 663.376 155.415)" fill="#CCCCCC" font-family="'KlinicSlab-BoldItalic'" font-size="90" letter-spacing="-2">.</text>
<text transform="matrix(1 0 0 1 679.666 155.415)" fill="#FFFFFF" font-family="'KlinicSlab-BoldItalic'" font-size="90">at</text>
</svg>
